<svg width="767.34845" height="800" xmlns="http://www.w3.org/2000/svg">
 <metadata id="metadata1906">image/svg+xml</metadata>

 <g>
  <title>background</title>
  <rect fill="none" id="canvas_background" height="2668.666667" width="2559.828167" y="-1" x="-1"/>
 </g>
 <g>
  <title>Layer 1</title>
  <g display="inline" id="layer2">
   <path fill="none" fill-rule="evenodd" stroke="#ffffff" stroke-width="10" stroke-miterlimit="4" id="path2219" d="m589.513886,283.327554l-72.34832,155.15286l-39.28461,79.70523l-28.43487,0.59929c0,0 -11.38646,0 -15.58147,11.98575c0,0 -19.77648,52.138 -43.14869,89.89311c0,0 -25.17008,32.96081 -50.93944,58.73017c0,0 -7.35818,16.19478 -16.42356,-2.84252l-12.04828,-21.46968c0,0 -4.57158,-9.95696 -24.21324,1.82803l-40.63862,15.80606c0,0 -7.71006,4.43995 -22.21467,-7.64722l-38.67895,-29.00921c0,0 -12.38935,-11.78499 -19.33947,-22.05909c0,0 -6.95013,-15.10896 -20.85037,-20.24601c0,0 -14.93843,-3.09959 -9.4992,-16.39548c0,0 13.9152,-18.02902 6.77958,-32.85975c0,0 -8.46102,-35.95933 -6.64794,-45.32689c0,0 -1.5109,-9.97192 15.10896,-22.96563c0,0 25.38306,-19.94383 64.66637,-42.00292l21.48463,-11.36613c0,0 1.78318,-3.13847 8.7333,5.92691c0,0 9.36756,14.5046 19.64165,12.69153c0,0 54.99663,-2.71962 78.26444,-15.10897c0,0 36.86587,-12.38935 50.76612,-38.98113l24.7787,-63.15547c0,0 3.92833,-12.38935 -3.02179,-27.49831c0,0 -12.08717,-17.82858 -3.92833,-36.26152l30.52011,-76.75354c0,0 10.27409,-11.18063 19.33947,-16.92204l67.99034,-50.16176c0,0 10.01082,-8.85594 19.37837,3.53341l41.66185,47.53489c0,0 12.08717,12.38935 -2.41744,27.80049l-34.14626,41.70075c-1.9833,5.94989 -7.55452,9.66985 6.64795,14.80678c0,0 42.43674,8.0661 28.04368,31.33801z" transform="rotate(64.56385803222656 365.39282226562494,399.6825256347657) "/>
   <path fill="none" fill-rule="evenodd" stroke="#ffffff" stroke-width="5.5" stroke-miterlimit="4" id="path2221" d="m513.720141,442.145708l0.60436,8.46102l-13.29589,32.93755l-11.32028,5.15078l-2.0523,22.76303c0,0 0.37887,-0.11332 -8.6865,18.92398l-33.84408,73.73174l-0.60436,34.75062" transform="rotate(64.56385803222656 479.4227905273436,540.5050659179689) "/>
   <g display="inline" id="g12355" transform="rotate(64.56385803222656 412.9012756347656,554.0992431640626) matrix(-0.3637981829225099,-1.2707765850716835,1.2707765850716835,-0.3637981829225099,532.2031795373824,1137.0680276581086) ">
    <rect fill="#000000" fill-rule="nonzero" stroke-width="1.3" stroke-miterlimit="4" id="rect9376" transform="matrix(0.7650015,0.6440285,-0.6440285,0.7650015,0,0) " y="-271.972791" x="360.224431" height="3.794178" width="3.636087"/>
    <rect fill="#000000" fill-rule="nonzero" stroke-width="1.3" stroke-miterlimit="4" id="rect10347" transform="matrix(0.7650015,0.6440285,-0.6440285,0.7650015,0,0) " y="-257.113461" x="360.231481" height="3.794178" width="3.636087"/>
    <rect fill="#000000" fill-rule="nonzero" stroke-width="1.3" stroke-miterlimit="4" id="rect10349" transform="matrix(0.7650015,0.6440285,-0.6440285,0.7650015,0,0) " y="-279.473961" x="360.320991" height="3.794178" width="3.636087"/>
    <rect fill="#ffffff" fill-rule="nonzero" stroke-width="1.3" stroke-miterlimit="4" id="rect10351" transform="matrix(0.7650015,0.6440285,-0.6440285,0.7650015,0,0) " y="-268.279701" x="360.194671" height="3.794178" width="3.636087"/>
    <rect fill="#ffffff" fill-rule="nonzero" stroke-width="1.3" stroke-miterlimit="4" id="rect12293" transform="matrix(0.7650015,0.6440285,-0.6440285,0.7650015,0,0) " y="-275.700141" x="360.237861" height="3.794178" width="3.636087"/>
    <rect fill="#ffffff" fill-rule="nonzero" stroke-width="1.3" stroke-miterlimit="4" id="rect12295" transform="matrix(0.7650015,0.6440285,-0.6440285,0.7650015,0,0) " y="-260.765831" x="360.235751" height="3.794178" width="3.636087"/>
    <rect fill="#ffffff" fill-rule="nonzero" stroke-width="1.3" stroke-miterlimit="4" id="rect12297" transform="matrix(0.7650015,0.6440285,-0.6440285,0.7650015,0,0) " y="-253.298651" x="360.234711" height="3.794178" width="3.636087"/>
    <rect fill="#ffffff" fill-rule="nonzero" stroke-width="1.3" stroke-miterlimit="4" id="rect12299" transform="matrix(0.7650015,0.6440285,-0.6440285,0.7650015,0,0) " y="-279.527471" x="363.964201" height="3.794178" width="3.636087"/>
    <rect fill="#000000" fill-rule="nonzero" stroke-width="1.3" stroke-miterlimit="4" id="rect12301" transform="matrix(0.7650015,0.6440285,-0.6440285,0.7650015,0,0) " y="-249.503351" x="360.207551" height="3.794178" width="3.636087"/>
    <rect fill="#000000" fill-rule="nonzero" stroke-width="1.3" stroke-miterlimit="4" id="rect12303" transform="matrix(0.7650015,0.6440285,-0.6440285,0.7650015,0,0) " y="-264.522411" x="360.216921" height="3.794178" width="3.636087"/>
    <rect fill="#000000" fill-rule="nonzero" stroke-width="1.3" stroke-miterlimit="4" id="rect12321" transform="matrix(0.7650015,0.6440285,-0.6440285,0.7650015,0,0) " y="-268.239461" x="363.774451" height="3.794178" width="3.636087"/>
    <rect fill="#000000" fill-rule="nonzero" stroke-width="1.3" stroke-miterlimit="4" id="rect12323" transform="matrix(0.7650015,0.6440285,-0.6440285,0.7650015,0,0) " y="-253.380141" x="363.781501" height="3.794178" width="3.636087"/>
    <rect fill="#000000" fill-rule="nonzero" stroke-width="1.3" stroke-miterlimit="4" id="rect12325" transform="matrix(0.7650015,0.6440285,-0.6440285,0.7650015,0,0) " y="-275.740641" x="363.871001" height="3.794178" width="3.636087"/>
    <rect fill="#ffffff" fill-rule="nonzero" stroke-width="1.3" stroke-miterlimit="4" id="rect12327" transform="matrix(0.7650015,0.6440285,-0.6440285,0.7650015,0,0) " y="-264.546381" x="363.744691" height="3.794178" width="3.636087"/>
    <rect fill="#ffffff" fill-rule="nonzero" stroke-width="1.3" stroke-miterlimit="4" id="rect12329" transform="matrix(0.7650015,0.6440285,-0.6440285,0.7650015,0,0) " y="-271.966821" x="363.787871" height="3.794178" width="3.636087"/>
    <rect fill="#ffffff" fill-rule="nonzero" stroke-width="1.3" stroke-miterlimit="4" id="rect12331" transform="matrix(0.7650015,0.6440285,-0.6440285,0.7650015,0,0) " y="-257.032511" x="363.785771" height="3.794178" width="3.636087"/>
    <rect fill="#ffffff" fill-rule="nonzero" stroke-width="1.3" stroke-miterlimit="4" id="rect12333" transform="matrix(0.7650015,0.6440285,-0.6440285,0.7650015,0,0) " y="-249.565331" x="363.784731" height="3.794178" width="3.636087"/>
    <rect fill="#000000" fill-rule="nonzero" stroke-width="1.3" stroke-miterlimit="4" id="rect12335" transform="matrix(0.7650015,0.6440285,-0.6440285,0.7650015,0,0) " y="-260.789091" x="363.766941" height="3.794178" width="3.636087"/>
    <rect fill="#000000" fill-rule="nonzero" stroke-width="1.3" stroke-miterlimit="4" id="rect12337" transform="matrix(0.7650015,0.6440285,-0.6440285,0.7650015,0,0) " y="-272.014761" x="367.328921" height="3.794178" width="3.636087"/>
    <rect fill="#000000" fill-rule="nonzero" stroke-width="1.3" stroke-miterlimit="4" id="rect12339" transform="matrix(0.7650015,0.6440285,-0.6440285,0.7650015,0,0) " y="-257.155431" x="367.335971" height="3.794178" width="3.636087"/>
    <rect fill="#000000" fill-rule="nonzero" stroke-width="1.3" stroke-miterlimit="4" id="rect12341" transform="matrix(0.7650015,0.6440285,-0.6440285,0.7650015,0,0) " y="-279.515941" x="367.425481" height="3.794178" width="3.636087"/>
    <rect fill="#ffffff" fill-rule="nonzero" stroke-width="1.3" stroke-miterlimit="4" id="rect12343" transform="matrix(0.7650015,0.6440285,-0.6440285,0.7650015,0,0) " y="-268.321681" x="367.299171" height="3.794178" width="3.636087"/>
    <rect fill="#ffffff" fill-rule="nonzero" stroke-width="1.3" stroke-miterlimit="4" id="rect12345" transform="matrix(0.7650015,0.6440285,-0.6440285,0.7650015,0,0) " y="-275.742121" x="367.342351" height="3.794178" width="3.636087"/>
    <rect fill="#ffffff" fill-rule="nonzero" stroke-width="1.3" stroke-miterlimit="4" id="rect12347" transform="matrix(0.7650015,0.6440285,-0.6440285,0.7650015,0,0) " y="-260.807811" x="367.340241" height="3.794178" width="3.636087"/>
    <rect fill="#ffffff" fill-rule="nonzero" stroke-width="1.3" stroke-miterlimit="4" id="rect12349" transform="matrix(0.7650015,0.6440285,-0.6440285,0.7650015,0,0) " y="-253.340631" x="367.339201" height="3.794178" width="3.636087"/>
    <rect fill="#000000" fill-rule="nonzero" stroke-width="1.3" stroke-miterlimit="4" id="rect12351" transform="matrix(0.7650015,0.6440285,-0.6440285,0.7650015,0,0) " y="-264.564391" x="367.321411" height="3.794178" width="3.636087"/>
    <rect fill="#000000" fill-rule="nonzero" stroke-width="1.3" stroke-miterlimit="4" id="rect12353" transform="matrix(0.7650015,0.6440285,-0.6440285,0.7650015,0,0) " y="-249.550561" x="367.420961" height="3.794178" width="3.636087"/>
   </g>
   <rect stroke="#ffffff" transform="rotate(-0.2225155532360077 413.58160400387334,552.4744873046941) " id="svg_1" height="48.885412" width="15.871892" y="528.031773" x="405.645651" stroke-width="5.5" fill="#ffffff"/>
  </g>
 </g>
</svg>