<?xml version="1.0" encoding="utf-8"?>
<!-- Generator: Adobe Illustrator 23.0.4, SVG Export Plug-In . SVG Version: 6.00 Build 0)  -->
<svg version="1.1"
	 id="svg3835" inkscape:export-filename="E:\Images\Maps\Race Tracks\Asia\Bahrain\Bahrain International Circuit--Grand Prix Layout.png" inkscape:export-xdpi="90" inkscape:export-ydpi="90" inkscape:version="0.92.0 r15299" sodipodi:docname="Track map for the &apos;Grand Prix Circuit&apos; at Bahrain International.svg" xmlns:cc="http://creativecommons.org/ns#" xmlns:dc="http://purl.org/dc/elements/1.1/" xmlns:inkscape="http://www.inkscape.org/namespaces/inkscape" xmlns:rdf="http://www.w3.org/1999/02/22-rdf-syntax-ns#" xmlns:sodipodi="http://sodipodi.sourceforge.net/DTD/sodipodi-0.dtd" xmlns:svg="http://www.w3.org/2000/svg"
	 xmlns="http://www.w3.org/2000/svg" xmlns:xlink="http://www.w3.org/1999/xlink" x="0px" y="0px" viewBox="0 0 1273.5 899.3"
	 style="enable-background:new 0 0 1273.5 899.3;" xml:space="preserve">
<style type="text/css">
	.st0{fill:none;}
	.st1{fill:#FFFFFF;}
	.st2{display:none;}
	.st3{display:inline;fill:none;stroke:#FFFFFF;stroke-width:10;}
	.st4{fill:none;stroke:#FFFFFF;stroke-width:10;}
	.st5{display:inline;fill:none;stroke:#FFFFFF;stroke-width:20;}
	.st6{display:inline;}
	.st7{clip-path:url(#SVGID_2_);}
	.st8{clip-path:url(#SVGID_4_);fill:none;stroke:#FFFFFF;stroke-width:25;}
	.st9{display:none;fill:none;}
	.st10{clip-path:url(#SVGID_7_);}
	.st11{clip-path:url(#SVGID_8_);fill:none;}
	.st12{display:inline;fill:none;stroke:#C8C8C8;stroke-width:15;}
	.st13{fill:none;stroke:#FFFFFF;stroke-width:15;}
	.st14{clip-path:url(#SVGID_11_);}
	.st15{clip-path:url(#SVGID_12_);}
	.st16{clip-path:url(#SVGID_15_);}
	.st17{clip-path:url(#SVGID_16_);fill:none;stroke:#808080;stroke-width:20;}
	.st18{display:inline;fill:none;stroke:#000000;stroke-width:5;}
	.st19{fill:none;stroke:#FFFFFF;stroke-width:5;}
	.st20{display:none;fill:#FF0000;stroke:#FFFFFF;stroke-width:0.8672;stroke-linecap:round;}
	.st21{fill:#FFFFFF;stroke:#FFFFFF;stroke-width:0.776;stroke-linecap:round;stroke-linejoin:round;}
	.st22{fill:url(#rect4262_2_);}
	.st23{display:inline;fill:none;stroke:#C8C8C8;stroke-width:5;}
</style>
<pattern  y="899.3" width="10.8" height="10.8" patternUnits="userSpaceOnUse" id="rect4262_1_" viewBox="0 -10.8 10.8 10.8" style="overflow:visible;">
	<g>
		<rect x="0" y="-10.8" class="st0" width="10.8" height="10.8"/>
		<g>
			<rect x="0" y="-10.8" class="st0" width="10.8" height="10.8"/>
			<g id="g4248_2_" transform="matrix(0.5878912,6.0987118e-3,-6.0987118e-3,0.5878912,-595.3809,-720.7077)">
				
					<rect id="rect4250_2_" x="1025.4" y="1196.8" transform="matrix(6.058297e-06 1 -1 6.058297e-06 2240.3823 171.4911)" width="18.1" height="18.2"/>
				
					<rect id="rect4252_2_" x="1025.4" y="1196.9" transform="matrix(6.058297e-06 1 -1 6.058297e-06 2231.4219 171.5192)" class="st1" width="9.1" height="9.1"/>
				
					<rect id="rect4254_2_" x="1034.5" y="1205.9" transform="matrix(6.058297e-06 1 -1 6.058297e-06 2249.457 171.4449)" class="st1" width="9.1" height="9.1"/>
			</g>
		</g>
	</g>
</pattern>
<title  id="title16833">Track map for the &quot;Grand Prix Circuit&quot; at Bahrain International</title>
<defs>
	
	
		<inkscape:perspective  id="perspective3843" inkscape:persp3d-origin="372.04724 : 350.78739 : 1" inkscape:vp_x="0 : 526.18109 : 1" inkscape:vp_y="0 : 1000 : 0" inkscape:vp_z="744.09448 : 526.18109 : 1" sodipodi:type="inkscape:persp3d">
		</inkscape:perspective>
	
		<inkscape:perspective  id="perspective3853" inkscape:persp3d-origin="0.5 : 0.33333333 : 1" inkscape:vp_x="0 : 0.5 : 1" inkscape:vp_y="0 : 1000 : 0" inkscape:vp_z="1 : 0.5 : 1" sodipodi:type="inkscape:persp3d">
		</inkscape:perspective>
	
		<inkscape:perspective  id="perspective3997" inkscape:persp3d-origin="0.5 : 0.33333333 : 1" inkscape:vp_x="0 : 0.5 : 1" inkscape:vp_y="0 : 1000 : 0" inkscape:vp_z="1 : 0.5 : 1" sodipodi:type="inkscape:persp3d">
		</inkscape:perspective>
	
		<inkscape:perspective  id="perspective5263" inkscape:persp3d-origin="0.5 : 0.33333333 : 1" inkscape:vp_x="0 : 0.5 : 1" inkscape:vp_y="0 : 1000 : 0" inkscape:vp_z="1 : 0.5 : 1" sodipodi:type="inkscape:persp3d">
		</inkscape:perspective>
	
		<inkscape:perspective  id="perspective6022" inkscape:persp3d-origin="0.5 : 0.33333333 : 1" inkscape:vp_x="0 : 0.5 : 1" inkscape:vp_y="0 : 1000 : 0" inkscape:vp_z="1 : 0.5 : 1" sodipodi:type="inkscape:persp3d">
		</inkscape:perspective>
	
		<inkscape:perspective  id="perspective6022-9" inkscape:persp3d-origin="0.5 : 0.33333333 : 1" inkscape:vp_x="0 : 0.5 : 1" inkscape:vp_y="0 : 1000 : 0" inkscape:vp_z="1 : 0.5 : 1" sodipodi:type="inkscape:persp3d">
		</inkscape:perspective>
	
		<inkscape:perspective  id="perspective6022-4" inkscape:persp3d-origin="0.5 : 0.33333333 : 1" inkscape:vp_x="0 : 0.5 : 1" inkscape:vp_y="0 : 1000 : 0" inkscape:vp_z="1 : 0.5 : 1" sodipodi:type="inkscape:persp3d">
		</inkscape:perspective>
	
		<inkscape:perspective  id="perspective6022-1" inkscape:persp3d-origin="0.5 : 0.33333333 : 1" inkscape:vp_x="0 : 0.5 : 1" inkscape:vp_y="0 : 1000 : 0" inkscape:vp_z="1 : 0.5 : 1" sodipodi:type="inkscape:persp3d">
		</inkscape:perspective>
	
		<inkscape:perspective  id="perspective6022-14" inkscape:persp3d-origin="0.5 : 0.33333333 : 1" inkscape:vp_x="0 : 0.5 : 1" inkscape:vp_y="0 : 1000 : 0" inkscape:vp_z="1 : 0.5 : 1" sodipodi:type="inkscape:persp3d">
		</inkscape:perspective>
	
		<inkscape:perspective  id="perspective6022-6" inkscape:persp3d-origin="0.5 : 0.33333333 : 1" inkscape:vp_x="0 : 0.5 : 1" inkscape:vp_y="0 : 1000 : 0" inkscape:vp_z="1 : 0.5 : 1" sodipodi:type="inkscape:persp3d">
		</inkscape:perspective>
	
		<inkscape:perspective  id="perspective6022-8" inkscape:persp3d-origin="0.5 : 0.33333333 : 1" inkscape:vp_x="0 : 0.5 : 1" inkscape:vp_y="0 : 1000 : 0" inkscape:vp_z="1 : 0.5 : 1" sodipodi:type="inkscape:persp3d">
		</inkscape:perspective>
	
		<inkscape:perspective  id="perspective6022-43" inkscape:persp3d-origin="0.5 : 0.33333333 : 1" inkscape:vp_x="0 : 0.5 : 1" inkscape:vp_y="0 : 1000 : 0" inkscape:vp_z="1 : 0.5 : 1" sodipodi:type="inkscape:persp3d">
		</inkscape:perspective>
	
		<inkscape:perspective  id="perspective6022-3" inkscape:persp3d-origin="0.5 : 0.33333333 : 1" inkscape:vp_x="0 : 0.5 : 1" inkscape:vp_y="0 : 1000 : 0" inkscape:vp_z="1 : 0.5 : 1" sodipodi:type="inkscape:persp3d">
		</inkscape:perspective>
	
		<inkscape:perspective  id="perspective6022-31" inkscape:persp3d-origin="0.5 : 0.33333333 : 1" inkscape:vp_x="0 : 0.5 : 1" inkscape:vp_y="0 : 1000 : 0" inkscape:vp_z="1 : 0.5 : 1" sodipodi:type="inkscape:persp3d">
		</inkscape:perspective>
	
		<inkscape:perspective  id="perspective6907" inkscape:persp3d-origin="0.5 : 0.33333333 : 1" inkscape:vp_x="0 : 0.5 : 1" inkscape:vp_y="0 : 1000 : 0" inkscape:vp_z="1 : 0.5 : 1" sodipodi:type="inkscape:persp3d">
		</inkscape:perspective>
	
		<inkscape:perspective  id="perspective6907-2" inkscape:persp3d-origin="0.5 : 0.33333333 : 1" inkscape:vp_x="0 : 0.5 : 1" inkscape:vp_y="0 : 1000 : 0" inkscape:vp_z="1 : 0.5 : 1" sodipodi:type="inkscape:persp3d">
		</inkscape:perspective>
	
		<inkscape:perspective  id="perspective6907-4" inkscape:persp3d-origin="0.5 : 0.33333333 : 1" inkscape:vp_x="0 : 0.5 : 1" inkscape:vp_y="0 : 1000 : 0" inkscape:vp_z="1 : 0.5 : 1" sodipodi:type="inkscape:persp3d">
		</inkscape:perspective>
	
		<inkscape:perspective  id="perspective6907-0" inkscape:persp3d-origin="0.5 : 0.33333333 : 1" inkscape:vp_x="0 : 0.5 : 1" inkscape:vp_y="0 : 1000 : 0" inkscape:vp_z="1 : 0.5 : 1" sodipodi:type="inkscape:persp3d">
		</inkscape:perspective>
	
		<inkscape:perspective  id="perspective6907-9" inkscape:persp3d-origin="0.5 : 0.33333333 : 1" inkscape:vp_x="0 : 0.5 : 1" inkscape:vp_y="0 : 1000 : 0" inkscape:vp_z="1 : 0.5 : 1" sodipodi:type="inkscape:persp3d">
		</inkscape:perspective>
	
		<inkscape:perspective  id="perspective6907-06" inkscape:persp3d-origin="0.5 : 0.33333333 : 1" inkscape:vp_x="0 : 0.5 : 1" inkscape:vp_y="0 : 1000 : 0" inkscape:vp_z="1 : 0.5 : 1" sodipodi:type="inkscape:persp3d">
		</inkscape:perspective>
	
		<inkscape:perspective  id="perspective7033" inkscape:persp3d-origin="0.5 : 0.33333333 : 1" inkscape:vp_x="0 : 0.5 : 1" inkscape:vp_y="0 : 1000 : 0" inkscape:vp_z="1 : 0.5 : 1" sodipodi:type="inkscape:persp3d">
		</inkscape:perspective>
	
		<inkscape:perspective  id="perspective7033-8" inkscape:persp3d-origin="0.5 : 0.33333333 : 1" inkscape:vp_x="0 : 0.5 : 1" inkscape:vp_y="0 : 1000 : 0" inkscape:vp_z="1 : 0.5 : 1" sodipodi:type="inkscape:persp3d">
		</inkscape:perspective>
	
		<inkscape:perspective  id="perspective7033-2" inkscape:persp3d-origin="0.5 : 0.33333333 : 1" inkscape:vp_x="0 : 0.5 : 1" inkscape:vp_y="0 : 1000 : 0" inkscape:vp_z="1 : 0.5 : 1" sodipodi:type="inkscape:persp3d">
		</inkscape:perspective>
	
		<inkscape:perspective  id="perspective7033-1" inkscape:persp3d-origin="0.5 : 0.33333333 : 1" inkscape:vp_x="0 : 0.5 : 1" inkscape:vp_y="0 : 1000 : 0" inkscape:vp_z="1 : 0.5 : 1" sodipodi:type="inkscape:persp3d">
		</inkscape:perspective>
	
		<inkscape:perspective  id="perspective8674" inkscape:persp3d-origin="0.5 : 0.33333333 : 1" inkscape:vp_x="0 : 0.5 : 1" inkscape:vp_y="0 : 1000 : 0" inkscape:vp_z="1 : 0.5 : 1" sodipodi:type="inkscape:persp3d">
		</inkscape:perspective>
	
		<inkscape:perspective  id="perspective12254" inkscape:persp3d-origin="0.5 : 0.33333333 : 1" inkscape:vp_x="0 : 0.5 : 1" inkscape:vp_y="0 : 1000 : 0" inkscape:vp_z="1 : 0.5 : 1" sodipodi:type="inkscape:persp3d">
		</inkscape:perspective>
	
		<inkscape:perspective  id="perspective12415" inkscape:persp3d-origin="0.5 : 0.33333333 : 1" inkscape:vp_x="0 : 0.5 : 1" inkscape:vp_y="0 : 1000 : 0" inkscape:vp_z="1 : 0.5 : 1" sodipodi:type="inkscape:persp3d">
		</inkscape:perspective>
</defs>
<sodipodi:namedview  bordercolor="#ffffff" borderopacity="0.0" id="base" inkscape:current-layer="layer1" inkscape:cx="713.00529" inkscape:cy="477.25627" inkscape:document-units="px" inkscape:pageopacity="0.0" inkscape:pageshadow="0" inkscape:window-height="1949" inkscape:window-maximized="1" inkscape:window-width="3840" inkscape:window-x="-16" inkscape:window-y="-16" inkscape:zoom="1.7412876" pagecolor="#ffffff" showgrid="false">
	</sodipodi:namedview>
<g id="layer1" transform="translate(335.20999,-101.7943)" inkscape:groupmode="layer" inkscape:label="Layer 1">
	<g id="use12425" class="st2">
		<path id="path12421_1_" inkscape:connector-curvature="0" sodipodi:nodetypes="csssssssssssssssss" class="st3" d="M-149.2,728.3
			c-5,7.4-10.9,22.7-14.9,30.4c-1.2,2.3-1.5,5.7-0.6,8c1.5,3.7,4.6,7.3,7.8,10.1c9.7,8.4,20.1,16.6,31,23.3
			c4.4,2.7,9.7,4.9,14.9,4.9c220.4,1.3,441.5,1.2,661.9-0.9c5.9-0.1,11.5-3.1,16.9-5.5c15.5-6.8,30.7-14.5,45.9-22.1
			c11.5-5.7,23.9-10.5,34.2-17.8c4.3-3.1,7.9-8.2,9.5-13.2c2.3-7.2,2.4-15.5,2.3-23.3c-0.2-9.5-1.6-19-3.2-28.4
			c-1.4-8-3.3-16-5.7-23.8c-1.8-5.8-3.6-11.9-6.9-16.9c-3.3-5.1-7.9-9.7-12.9-13.2c-17.5-12.1-35.7-23.6-54-34.7
			c-12.3-7.5-22.9-15.1-35.2-22.5"/>
	</g>
	<g id="use4825">
		<path id="path4820_1_" inkscape:connector-curvature="0" sodipodi:nodetypes="cssssssss" class="st4" d="M685.1,952.5
			c-24.6-0.3-48.7-4.8-73.1-6c-22.2-1-44.6,0.3-66.9-0.6c-12-0.5-23.8-3.3-35.8-3.5c-72-1.1-144.2-0.4-216.2-0.3
			c-95,0.1-190,0.1-285,0.6c-7.9,0-15.7,0.5-23.6,1.1c-30.4,2.2-60.6,5.6-91,7.2c-21.8,1.2-43.6,2.6-65.4,3"/>
	</g>
	<g id="use4818" class="st2">
		
			<path id="path4003_1_" inkscape:connector-curvature="0" sodipodi:nodetypes="cssssssssssssssssssssssssssssssssssssssssssssssssssssssssssssssssssssssssssssssssssssssss" class="st5" d="
			M158.5,959.8c-128.2,0.3-256.3-0.6-384.5-0.9c-27.1-0.1-55.9,2.8-81.3-0.3c-3.8-0.5-5.3-6.6-6.3-10.4c-0.9-3.4-1-8,0.6-11
			c2.6-4.8,8.4-8.2,12.2-12.6c13.6-15.3,28-30.3,40.2-46.5c2.3-3.1,3.2-7.5,3.5-11.3c0.3-4.2-0.5-8.8-1.9-12.9
			c-9.6-27.2-21.8-53.7-31.1-81c-2.2-6.4-3.1-13.4-3.1-20.1c-0.1-10.5,1.6-21.2,2.8-31.7c3.7-30.9,7.9-61.7,11.9-92.6
			c8.7-67.1,17.3-134.2,26.4-201.2c8.3-61.7,17.1-123.3,25.7-184.9c2.2-15.6,3.8-31.4,6.9-46.8c1.4-7,2.7-15.1,6.6-20.4
			c2.5-3.4,8.2-4.4,12.6-5.6c4.7-1.4,9.9-2.6,14.8-2.2c6.5,0.6,13.1,2.7,19.1,5.3c5.9,2.5,11.7,5.9,16.6,10
			c5.6,4.7,10.6,10.4,15.1,16.3c5.8,7.8,10,16.9,15.7,24.8c5.4,7.5,11.1,15,17.6,21.7c16.9,17.3,34.4,34,52.4,50.2
			c18.6,16.8,37.1,34.4,57.4,48.6c7.7,5.4,17.7,7.2,26.7,10.4c10.9,3.8,22.5,6,33,10.7c5.1,2.3,10,5.9,13.8,10
			c4.9,5.3,8.9,11.8,12.2,18.2c2.8,5.4,5.2,11.3,6,17.3c1.1,8.8,0.2,18-0.6,27c-1,10.6-3.6,21.1-4.7,31.7
			c-0.9,8.4-2.4,17.2-1.3,25.4c1.1,8,3.8,16.3,7.8,23.2c3.7,6.4,9.7,11.7,15.4,16.6c12,10.5,24.7,20.4,37.7,29.8
			c26.8,19.4,54.8,37.2,81.6,56.5c16,11.5,32.7,21.5,47.5,34.4c3.3,2.8,6.9,8.1,7.8,12.1c1,4.2-0.3,10.8-2.4,14.4
			c-1.8,3.3-6.6,5.1-10.4,6.9c-4.4,2.1-9.3,2.9-14.1,3.5c-6.1,0.6-15.1-0.3-21.3-0.9c-99-10.8-195.5-23.5-294.4-32.3
			c-9.5-0.8-19.2,1.7-28.2,4.4c-7.3,2.2-14.5,5.9-20.7,10.4c-6.4,4.6-11.9,10.8-16.9,16.9c-8,9.8-14.9,20.6-22,31.1
			c-2.6,3.9-6.2,8-7.2,12.2c-0.6,2.6,0.3,6.7,2.2,8.5c2.6,2.5,7.3,3.9,11.3,4.4c37.7,4.5,75.9,7.6,113.9,10.7c11,0.9,22,1.2,33,1.3
			c184.7,0.2,369.7,1.2,554.3-0.6c6.1-0.1,12.5-2.1,17.6-5c4.5-2.6,9-6.9,11.3-11.6c3.8-7.7,5.9-16.8,7.2-25.4
			c1.5-9.7,2.2-19.8,1.3-29.5c-0.8-7.9-3.9-15.7-6.6-23.2c-2.8-7.7-6.4-15.2-10-22.6c-2.6-5.3-5.3-10.7-8.8-15.4
			c-4.7-6.3-10.1-12.1-15.7-17.6c-7.1-6.9-14.4-13.9-22.6-19.5c-9.7-6.5-20.2-12.3-31.1-16.6c-18.6-7.3-38.3-12-57.4-18.2
			c-7.8-2.5-16.1-4.1-23.2-7.8c-9.3-4.9-18.1-11.3-26.1-18.2c-7.8-6.8-15.3-14.5-21.3-22.9c-4.6-6.5-7.8-14.2-10.7-21.7
			c-4-10.4-7-21.2-9.7-32c-1.8-7.2-3.9-14.6-3.8-22c0.1-9.8,1.5-20.1,4.4-29.5c5.7-18.4,14-36.2,21.7-54
			c10.9-25.2,20.5-51.4,33.9-75c5.5-9.8,14.3-17.9,22.9-25.1c7.5-6.2,16.3-12.4,25.4-15.1c7.8-2.3,17.3-0.9,25.4,0.3
			c3.3,0.5,6.4,2.8,9.1,5c6.9,5.7,14.4,11.2,19.5,18.5c29.2,42.4,56.5,86.6,83.5,130.6c60.4,98.4,119.2,197.8,178.9,296.6
			c24.7,40.9,49.4,81.9,74.4,122.7c18.7,30.6,39.4,60.3,56.8,91.3c2.4,4.2,3.1,9.8,2.5,14.4c-0.7,5.4-1.8,12.8-6.3,15.7
			c-16.4,10.7-37.2,18.2-56.5,25.1c-8.8,3.1-18.3,4.9-27.6,5C604.1,958.8,381.2,959.2,158.5,959.8L158.5,959.8z"/>
	</g>
	<g class="st2">
		<g class="st6">
			<defs>
				<rect id="SVGID_1_" x="-335.2" y="101.8" width="1273.5" height="900.7"/>
			</defs>
			<clipPath id="SVGID_2_">
				<use xlink:href="#SVGID_1_"  style="overflow:visible;"/>
			</clipPath>
			<g id="use4814" class="st7">
				<g>
					<g>
						<g>
							<defs>
								<rect id="SVGID_3_" x="-335.2" y="101.8" width="1273.5" height="900.7"/>
							</defs>
							<clipPath id="SVGID_4_">
								<use xlink:href="#SVGID_3_"  style="overflow:visible;"/>
							</clipPath>
							<path id="path4790_1_" inkscape:connector-curvature="0" sodipodi:nodetypes="cc" class="st8" d="M-119.3,787.5l1163.8-2.5"
								/>
						</g>
					</g>
				</g>
			</g>
		</g>
	</g>
	<g id="use4810" class="st2">
		<path id="path4783_1_" inkscape:connector-curvature="0" sodipodi:nodetypes="csss" class="st5" d="M-288.6,707.3
			c1.6-11.2,11.1-19.2,16.2-17.7c30.5,9,61.9,26.2,92.9,41.4c13.5,6.7,28,13.3,47.7,16.6"/>
	</g>
	<g id="use4806" class="st2">
		<path id="path4781_1_" inkscape:connector-curvature="0" sodipodi:nodetypes="csssssss" class="st5" d="M195.8,257.4
			c17.2,9.2,32.8,38,61.5,51.7c11.7,5.6,30,8.8,40.2,3.8c9.9-5,13.7-22.4,20.1-33.9c9.1-16.2,14-36.2,26.4-49
			c11.1-11.5,31.5-13.7,43.9-23.9c5.6-4.5,9.8-13.4,10-20.1c0.2-5.5-5.9-10.9-8.8-16.3"/>
	</g>
	<g id="use4802" class="st2">
		<path id="path4779_1_" inkscape:connector-curvature="0" sodipodi:nodetypes="cssssssssss" class="st5" d="M29.4,353.1
			C0.6,342.5-0.3,328.7-2.5,317.9C-4,310.5-2.1,301,1.3,294c3.3-6.9,14.4-14.8,21.8-16.6c24.4-6.1,47.2-5.1,73.6-7.2
			c19.7-1.6,50.2-2.4,56.5-6.1c6.1-3.7,24.3-10.7,33.9-9.7c6.5,0.6,11.9,4.3,15.1,9.6c7.3,12.3,7.1,30.3,13.8,43.9
			c11.7,23.6,24.3,47.8,41.4,67.8c37.3,43.6,113.9,111.9,126.1,130.1"/>
	</g>
	<g id="use4794" class="st2">
		<path id="path4787_1_" inkscape:connector-curvature="0" sodipodi:nodetypes="cssssssscssssss" class="st5" d="M616.4,785.9
			c33.6,0.4,59.6,13.6,77.8,21.7c17.8,7.8,38.6,14.5,51.5,27.6c10.2,10.3,18.4,29,17.6,42.7c-0.8,13.1-11.4,29.3-22.6,37.7
			c-17.3,13-41.2,19.8-62.8,26.4c-19.8,6-40.8,8.9-61.5,11.3c-30,3.5-60.3,4.2-90.4,6.3 M4.6,959.5c-25.1,0-112.9-6.2-147.7-23.9
			c-15.8-8-32.7-17.9-42.7-31.4c-8.9-12-15.8-31.3-13.8-45.2c1.8-12.1,14.3-24.7,25.1-32.6c17.2-12.6,38.5-21.7,59-28.9
			c15.5-5.4,29-9.9,48.3-10.2"/>
	</g>
	<g id="use4798" class="st2">
		<path id="path4777_1_" inkscape:connector-curvature="0" sodipodi:nodetypes="csssssssssssssss" class="st5" d="M-173.6,170.2
			c13.7,4.2,43.7,21.9,56.8,29.7c9.9,6,20.5,12.7,31.4,15.1c8.3,1.8,18.3,0.8,26.4-2.5c24.6-10.1,48-24.5,71.6-37.7
			c28.8-16.1,55.3-38.3,85.4-50.2c17.6-7,38.6-6.9,57.7-6.3c16.9,0.6,34.7,3.8,50.2,10c13.7,5.5,25.5,16.2,37.7,25.1
			c6.7,4.9,11.6,12.7,18.8,16.3c7,3.5,16.6,6.7,23.9,5c8.6-2,15.6-11.4,23.9-16.3c7.2-4.3,14.7-10,22.6-11.3
			c7.2-1.2,15.9,0.3,22.6,3.8c43.9,22.5,85.6,44.9,128.1,70.6c11.5,7,24.4,17.9,33.7,28"/>
	</g>
	
		<path inkscape:connector-curvature="0" sodipodi:nodetypes="cssssssssssssssssssssssssssssssssssssssssssssssssssssssssssssssssssssssssssssssssssssssss" class="st9" d="
		M158.5,959.8c-128.2,0.3-256.3-0.6-384.5-0.9c-27.1-0.1-55.9,2.8-81.3-0.3c-3.8-0.5-5.3-6.6-6.3-10.4c-0.9-3.4-1-8,0.6-11
		c2.6-4.8,8.4-8.2,12.2-12.6c13.6-15.3,28-30.3,40.2-46.5c2.3-3.1,3.2-7.5,3.5-11.3c0.3-4.2-0.5-8.8-1.9-12.9
		c-9.6-27.2-21.8-53.7-31.1-81c-2.2-6.4-3.1-13.4-3.1-20.1c-0.1-10.5,1.6-21.2,2.8-31.7c3.7-30.9,7.9-61.7,11.9-92.6
		c8.7-67.1,17.3-134.2,26.4-201.2c8.3-61.7,17.1-123.3,25.7-184.9c2.2-15.6,3.8-31.4,6.9-46.8c1.4-7,2.7-15.1,6.6-20.4
		c2.5-3.4,8.2-4.4,12.6-5.6c4.7-1.4,9.9-2.6,14.8-2.2c6.5,0.6,13.1,2.7,19.1,5.3c5.9,2.5,11.7,5.9,16.6,10
		c5.6,4.7,10.6,10.4,15.1,16.3c5.8,7.8,10,16.9,15.7,24.8c5.4,7.5,11.1,15,17.6,21.7c16.9,17.3,34.4,34,52.4,50.2
		c18.6,16.8,37.1,34.4,57.4,48.6c7.7,5.4,17.7,7.2,26.7,10.4c10.9,3.8,22.5,6,33,10.7c5.1,2.3,10,5.9,13.8,10
		c4.9,5.3,8.9,11.8,12.2,18.2c2.8,5.4,5.2,11.3,6,17.3c1.1,8.8,0.2,18-0.6,27c-1,10.6-3.6,21.1-4.7,31.7c-0.9,8.4-2.4,17.2-1.3,25.4
		c1.1,8,3.8,16.3,7.8,23.2c3.7,6.4,9.7,11.7,15.4,16.6c12,10.5,24.7,20.4,37.7,29.8c26.8,19.4,54.8,37.2,81.6,56.5
		c16,11.5,32.7,21.5,47.5,34.4c3.3,2.8,6.9,8.1,7.8,12.1c1,4.2-0.3,10.8-2.4,14.4c-1.8,3.3-6.6,5.1-10.4,6.9
		c-4.4,2.1-9.3,2.9-14.1,3.5c-6.1,0.6-15.1-0.3-21.3-0.9c-99-10.8-195.5-23.5-294.4-32.3c-9.5-0.8-19.2,1.7-28.2,4.4
		c-7.3,2.2-14.5,5.9-20.7,10.4c-6.4,4.6-11.9,10.8-16.9,16.9c-8,9.8-14.9,20.6-22,31.1c-2.6,3.9-6.2,8-7.2,12.2
		c-0.6,2.6,0.3,6.7,2.2,8.5c2.6,2.5,7.3,3.9,11.3,4.4c37.7,4.5,75.9,7.6,113.9,10.7c11,0.9,22,1.2,33,1.3
		c184.7,0.2,369.7,1.2,554.3-0.6c6.1-0.1,12.5-2.1,17.6-5c4.5-2.6,9-6.9,11.3-11.6c3.8-7.7,5.9-16.8,7.2-25.4
		c1.5-9.7,2.2-19.8,1.3-29.5c-0.8-7.9-3.9-15.7-6.6-23.2c-2.8-7.7-6.4-15.2-10-22.6c-2.6-5.3-5.3-10.7-8.8-15.4
		c-4.7-6.3-10.1-12.1-15.7-17.6c-7.1-6.9-14.4-13.9-22.6-19.5c-9.7-6.5-20.2-12.3-31.1-16.6c-18.6-7.3-38.3-12-57.4-18.2
		c-7.8-2.5-16.1-4.1-23.2-7.8c-9.3-4.9-18.1-11.3-26.1-18.2c-7.8-6.8-15.3-14.5-21.3-22.9c-4.6-6.5-7.8-14.2-10.7-21.7
		c-4-10.4-7-21.2-9.7-32c-1.8-7.2-3.9-14.6-3.8-22c0.1-9.8,1.5-20.1,4.4-29.5c5.7-18.4,14-36.2,21.7-54c10.9-25.2,20.5-51.4,33.9-75
		c5.5-9.8,14.3-17.9,22.9-25.1c7.5-6.2,16.3-12.4,25.4-15.1c7.8-2.3,17.3-0.9,25.4,0.3c3.3,0.5,6.4,2.8,9.1,5
		c6.9,5.7,14.4,11.2,19.5,18.5c29.2,42.4,56.5,86.6,83.5,130.6c60.4,98.4,119.2,197.8,178.9,296.6c24.7,40.9,49.4,81.9,74.4,122.7
		c18.7,30.6,39.4,60.3,56.8,91.3c2.4,4.2,3.1,9.8,2.5,14.4c-0.7,5.4-1.8,12.8-6.3,15.7c-16.4,10.7-37.2,18.2-56.5,25.1
		c-8.8,3.1-18.3,4.9-27.6,5C604.1,958.8,381.2,959.2,158.5,959.8L158.5,959.8z"/>
	<path inkscape:connector-curvature="0" sodipodi:nodetypes="cssssssss" class="st9" d="M685.1,952.5c-24.6-0.3-48.7-4.8-73.1-6
		c-22.2-1-44.6,0.3-66.9-0.6c-12-0.5-23.8-3.3-35.8-3.5c-72-1.1-144.2-0.4-216.2-0.3c-95,0.1-190,0.1-285,0.6
		c-7.9,0-15.7,0.5-23.6,1.1c-30.4,2.2-60.6,5.6-91,7.2c-21.8,1.2-43.6,2.6-65.4,3"/>
	<path inkscape:connector-curvature="0" sodipodi:nodetypes="csssssssssssssss" class="st9" d="M-173.6,170.2
		c13.7,4.2,43.7,21.9,56.8,29.7c9.9,6,20.5,12.7,31.4,15.1c8.3,1.8,18.3,0.8,26.4-2.5c24.6-10.1,48-24.5,71.6-37.7
		c28.8-16.1,55.3-38.3,85.4-50.2c17.6-7,38.6-6.9,57.7-6.3c16.9,0.6,34.7,3.8,50.2,10c13.7,5.5,25.5,16.2,37.7,25.1
		c6.7,4.9,11.6,12.7,18.8,16.3c7,3.5,16.6,6.7,23.9,5c8.6-2,15.6-11.4,23.9-16.3c7.2-4.3,14.7-10,22.6-11.3
		c7.2-1.2,15.9,0.3,22.6,3.8c43.9,22.5,85.6,44.9,128.1,70.6c11.5,7,24.4,17.9,33.7,28"/>
	<path inkscape:connector-curvature="0" sodipodi:nodetypes="cssssssssss" class="st9" d="M29.4,353.1
		C0.6,342.5-0.3,328.7-2.5,317.9C-4,310.5-2.1,301,1.3,294c3.3-6.9,14.4-14.8,21.8-16.6c24.4-6.1,47.2-5.1,73.6-7.2
		c19.7-1.6,50.2-2.4,56.5-6.1c6.1-3.7,24.3-10.7,33.9-9.7c6.5,0.6,11.9,4.3,15.1,9.6c7.3,12.3,7.1,30.3,13.8,43.9
		c11.7,23.6,24.3,47.8,41.4,67.8c37.3,43.6,113.9,111.9,126.1,130.1"/>
	<path inkscape:connector-curvature="0" sodipodi:nodetypes="csssssss" class="st9" d="M195.8,257.4c17.2,9.2,32.8,38,61.5,51.7
		c11.7,5.6,30,8.8,40.2,3.8c9.9-5,13.7-22.4,20.1-33.9c9.1-16.2,14-36.2,26.4-49c11.1-11.5,31.5-13.7,43.9-23.9
		c5.6-4.5,9.8-13.4,10-20.1c0.2-5.5-5.9-10.9-8.8-16.3"/>
	<path inkscape:connector-curvature="0" sodipodi:nodetypes="csss" class="st9" d="M-288.6,707.3c1.6-11.2,11.1-19.2,16.2-17.7
		c30.5,9,61.9,26.2,92.9,41.4c13.5,6.7,28,13.3,47.7,16.6"/>
	<path inkscape:connector-curvature="0" sodipodi:nodetypes="cssssssscssssss" class="st9" d="M616.4,785.9
		c33.6,0.4,59.6,13.6,77.8,21.7c17.8,7.8,38.6,14.5,51.5,27.6c10.2,10.3,18.4,29,17.6,42.7c-0.8,13.1-11.4,29.3-22.6,37.7
		c-17.3,13-41.2,19.8-62.8,26.4c-19.8,6-40.8,8.9-61.5,11.3c-30,3.5-60.3,4.2-90.4,6.3 M4.6,959.5c-25.1,0-112.9-6.2-147.7-23.9
		c-15.8-8-32.7-17.9-42.7-31.4c-8.9-12-15.8-31.3-13.8-45.2c1.8-12.1,14.3-24.7,25.1-32.6c17.2-12.6,38.5-21.7,59-28.9
		c15.5-5.4,29-9.9,48.3-10.2"/>
	<g class="st2">
		<g class="st6">
			<defs>
				<polygon id="SVGID_5_" points="1,1 2,1 1,2 				"/>
			</defs>
			<defs>
				<polygon id="SVGID_6_" points="-1,-1 -2,-1 -1,-2 				"/>
			</defs>
			<clipPath id="SVGID_7_">
				<use xlink:href="#SVGID_5_"  style="overflow:visible;"/>
			</clipPath>
			<clipPath id="SVGID_8_" class="st10">
				<use xlink:href="#SVGID_6_"  style="overflow:visible;"/>
			</clipPath>
			<path inkscape:connector-curvature="0" sodipodi:nodetypes="cc" class="st11" d="M-119.3,787.5l1163.8-2.5"/>
		</g>
	</g>
	<path inkscape:connector-curvature="0" sodipodi:nodetypes="csssssssssssssssss" class="st9" d="M-149.2,728.3
		c-5,7.4-10.9,22.7-14.9,30.4c-1.2,2.3-1.5,5.7-0.6,8c1.5,3.7,4.6,7.3,7.8,10.1c9.7,8.4,20.1,16.6,31,23.3c4.4,2.7,9.7,4.9,14.9,4.9
		c220.4,1.3,441.5,1.2,661.9-0.9c5.9-0.1,11.5-3.1,16.9-5.5c15.5-6.8,30.7-14.5,45.9-22.1c11.5-5.7,23.9-10.5,34.2-17.8
		c4.3-3.1,7.9-8.2,9.5-13.2c2.3-7.2,2.4-15.5,2.3-23.3c-0.2-9.5-1.6-19-3.2-28.4c-1.4-8-3.3-16-5.7-23.8c-1.8-5.8-3.6-11.9-6.9-16.9
		c-3.3-5.1-7.9-9.7-12.9-13.2c-17.5-12.1-35.7-23.6-54-34.7c-12.3-7.5-22.9-15.1-35.2-22.5"/>
	<g id="use4792" class="st2">
		<path inkscape:connector-curvature="0" sodipodi:nodetypes="cssssssscssssss" class="st12" d="M616.4,785.9
			c33.6,0.4,59.6,13.6,77.8,21.7c17.8,7.8,38.6,14.5,51.5,27.6c10.2,10.3,18.4,29,17.6,42.7c-0.8,13.1-11.4,29.3-22.6,37.7
			c-17.3,13-41.2,19.8-62.8,26.4c-19.8,6-40.8,8.9-61.5,11.3c-30,3.5-60.3,4.2-90.4,6.3 M4.6,959.5c-25.1,0-112.9-6.2-147.7-23.9
			c-15.8-8-32.7-17.9-42.7-31.4c-8.9-12-15.8-31.3-13.8-45.2c1.8-12.1,14.3-24.7,25.1-32.6c17.2-12.6,38.5-21.7,59-28.9
			c15.5-5.4,29-9.9,48.3-10.2"/>
	</g>
	<g id="use4796" class="st2">
		<path inkscape:connector-curvature="0" sodipodi:nodetypes="csssssssssssssss" class="st12" d="M-173.6,170.2
			c13.7,4.2,43.7,21.9,56.8,29.7c9.9,6,20.5,12.7,31.4,15.1c8.3,1.8,18.3,0.8,26.4-2.5c24.6-10.1,48-24.5,71.6-37.7
			c28.8-16.1,55.3-38.3,85.4-50.2c17.6-7,38.6-6.9,57.7-6.3c16.9,0.6,34.7,3.8,50.2,10c13.7,5.5,25.5,16.2,37.7,25.1
			c6.7,4.9,11.6,12.7,18.8,16.3c7,3.5,16.6,6.7,23.9,5c8.6-2,15.6-11.4,23.9-16.3c7.2-4.3,14.7-10,22.6-11.3
			c7.2-1.2,15.9,0.3,22.6,3.8c43.9,22.5,85.6,44.9,128.1,70.6c11.5,7,24.4,17.9,33.7,28"/>
	</g>
	<g id="use4800" class="st2">
		<path inkscape:connector-curvature="0" sodipodi:nodetypes="cssssssssss" class="st12" d="M29.4,353.1
			C0.6,342.5-0.3,328.7-2.5,317.9C-4,310.5-2.1,301,1.3,294c3.3-6.9,14.4-14.8,21.8-16.6c24.4-6.1,47.2-5.1,73.6-7.2
			c19.7-1.6,50.2-2.4,56.5-6.1c6.1-3.7,24.3-10.7,33.9-9.7c6.5,0.6,11.9,4.3,15.1,9.6c7.3,12.3,7.1,30.3,13.8,43.9
			c11.7,23.6,24.3,47.8,41.4,67.8c37.3,43.6,113.9,111.9,126.1,130.1"/>
	</g>
	<g id="use4804" class="st2">
		<path inkscape:connector-curvature="0" sodipodi:nodetypes="csssssss" class="st12" d="M195.8,257.4c17.2,9.2,32.8,38,61.5,51.7
			c11.7,5.6,30,8.8,40.2,3.8c9.9-5,13.7-22.4,20.1-33.9c9.1-16.2,14-36.2,26.4-49c11.1-11.5,31.5-13.7,43.9-23.9
			c5.6-4.5,9.8-13.4,10-20.1c0.2-5.5-5.9-10.9-8.8-16.3"/>
	</g>
	<g id="use4808">
		<path inkscape:connector-curvature="0" sodipodi:nodetypes="csss" class="st13" d="M-288.6,707.3c1.6-11.2,11.1-19.2,16.2-17.7
			c30.5,9,61.9,26.2,92.9,41.4c13.5,6.7,28,13.3,47.7,16.6"/>
	</g>
	<g class="st2">
		<g class="st6">
			<defs>
				<polygon id="SVGID_9_" points="1,1 2,1 1,2 				"/>
			</defs>
			<defs>
				<polygon id="SVGID_10_" points="-1,-1 -2,-1 -1,-2 				"/>
			</defs>
			<clipPath id="SVGID_11_">
				<use xlink:href="#SVGID_9_"  style="overflow:visible;"/>
			</clipPath>
			<clipPath id="SVGID_12_" class="st14">
				<use xlink:href="#SVGID_10_"  style="overflow:visible;"/>
			</clipPath>
			<g id="use4812" class="st15">
				<g>
					<g>
						<defs>
							<polygon id="SVGID_13_" points="1,1 2,1 1,2 							"/>
						</defs>
						<defs>
							<polygon id="SVGID_14_" points="-1,-1 -2,-1 -1,-2 							"/>
						</defs>
						<clipPath id="SVGID_15_">
							<use xlink:href="#SVGID_13_"  style="overflow:visible;"/>
						</clipPath>
						<clipPath id="SVGID_16_" class="st16">
							<use xlink:href="#SVGID_14_"  style="overflow:visible;"/>
						</clipPath>
						<path inkscape:connector-curvature="0" sodipodi:nodetypes="cc" class="st17" d="M-119.3,787.5l1163.8-2.5"/>
					</g>
				</g>
			</g>
		</g>
	</g>
	<g id="use4823" class="st2">
		<path inkscape:connector-curvature="0" sodipodi:nodetypes="cssssssss" class="st18" d="M685.1,952.5c-24.6-0.3-48.7-4.8-73.1-6
			c-22.2-1-44.6,0.3-66.9-0.6c-12-0.5-23.8-3.3-35.8-3.5c-72-1.1-144.2-0.4-216.2-0.3c-95,0.1-190,0.1-285,0.6
			c-7.9,0-15.7,0.5-23.6,1.1c-30.4,2.2-60.6,5.6-91,7.2c-21.8,1.2-43.6,2.6-65.4,3"/>
	</g>
	<g id="use4829">
		<path inkscape:connector-curvature="0" sodipodi:nodetypes="cssssssss" class="st19" d="M685.1,952.5c-24.6-0.3-48.7-4.8-73.1-6
			c-22.2-1-44.6,0.3-66.9-0.6c-12-0.5-23.8-3.3-35.8-3.5c-72-1.1-144.2-0.4-216.2-0.3c-95,0.1-190,0.1-285,0.6
			c-7.9,0-15.7,0.5-23.6,1.1c-30.4,2.2-60.6,5.6-91,7.2c-21.8,1.2-43.6,2.6-65.4,3"/>
	</g>
	<g id="g4801" transform="matrix(-0.93212275,0.88975395,-0.88975395,-0.93212275,2248.4394,442.53668)">
		
			<path id="path3463" inkscape:flatsided="true" inkscape:randomized="0" inkscape:rounded="0" sodipodi:arg1="0.52359878" sodipodi:arg2="1.5707963" sodipodi:cx="1683.6964" sodipodi:cy="1391.4535" sodipodi:r1="14.134234" sodipodi:r2="7.0671172" sodipodi:sides="3" sodipodi:type="star" class="st20" d="
			M1449.6,802.4l8.8-9l19.2,27.6L1449.6,802.4z"/>
		
			<rect id="rect3457" x="1412.9" y="826.9" transform="matrix(0.6957 -0.7183 0.7183 0.6957 -160.4149 1288.1177)" class="st21" width="54.7" height="13"/>
		
			<pattern  id="rect4262_2_" xlink:href="#rect4262_1_" patternTransform="matrix(0.8543 -0.9647 -0.9647 -0.8543 21090.7578 -22762.373)">
		</pattern>
		<path id="rect4262" class="st22" d="M1593.7,910.6L1593.7,910.6L1593.7,910.6z"/>
	</g>
	<g id="use12423" class="st2">
		<path inkscape:connector-curvature="0" sodipodi:nodetypes="csssssssssssssssss" class="st23" d="M-149.2,728.3
			c-5,7.4-10.9,22.7-14.9,30.4c-1.2,2.3-1.5,5.7-0.6,8c1.5,3.7,4.6,7.3,7.8,10.1c9.7,8.4,20.1,16.6,31,23.3
			c4.4,2.7,9.7,4.9,14.9,4.9c220.4,1.3,441.5,1.2,661.9-0.9c5.9-0.1,11.5-3.1,16.9-5.5c15.5-6.8,30.7-14.5,45.9-22.1
			c11.5-5.7,23.9-10.5,34.2-17.8c4.3-3.1,7.9-8.2,9.5-13.2c2.3-7.2,2.4-15.5,2.3-23.3c-0.2-9.5-1.6-19-3.2-28.4
			c-1.4-8-3.3-16-5.7-23.8c-1.8-5.8-3.6-11.9-6.9-16.9c-3.3-5.1-7.9-9.7-12.9-13.2c-17.5-12.1-35.7-23.6-54-34.7
			c-12.3-7.5-22.9-15.1-35.2-22.5"/>
	</g>
	<g id="use4816">
		
			<path inkscape:connector-curvature="0" sodipodi:nodetypes="cssssssssssssssssssssssssssssssssssssssssssssssssssssssssssssssssssssssssssssssssssssssss" class="st13" d="
			M-117.1,691.1"/>
		
			<path inkscape:connector-curvature="0" sodipodi:nodetypes="cssssssssssssssssssssssssssssssssssssssssssssssssssssssssssssssssssssssssssssssssssssssss" class="st13" d="
			M-200.2,169.8"/>
		
			<path inkscape:connector-curvature="0" sodipodi:nodetypes="cssssssssssssssssssssssssssssssssssssssssssssssssssssssssssssssssssssssssssssssssssssssss" class="st13" d="
			M-219.4,195.8"/>
		
			<path inkscape:connector-curvature="0" sodipodi:nodetypes="cssssssssssssssssssssssssssssssssssssssssssssssssssssssssssssssssssssssssssssssssssssssss" class="st13" d="
			M-132.8,747.3c37.7,4.5,75.9,7.6,113.9,10.7c11,0.9,22,1.2,33,1.3c184.7,0.2,369.7,1.2,554.3-0.6c6.1-0.1,12.5-2.1,17.6-5
			c4.5-2.6,9-6.9,11.3-11.6c3.8-7.7,5.9-16.8,7.2-25.4c1.5-9.7,2.2-19.8,1.3-29.5c-0.8-7.9-3.9-15.7-6.6-23.2
			c-2.8-7.7-6.4-15.2-10-22.6c-2.6-5.3-5.3-10.7-8.8-15.4c-4.7-6.3-10.1-12.1-15.7-17.6c-7.1-6.9-14.4-13.9-22.6-19.5
			c-9.7-6.5-20.2-12.3-31.1-16.6c-18.6-7.3-38.3-12-57.4-18.2c-7.8-2.5-16.1-4.1-23.2-7.8c-9.3-4.9-18.1-11.3-26.1-18.2
			c-7.8-6.8-15.3-14.5-21.3-22.9c-4.6-6.5-7.8-14.2-10.7-21.7c-4-10.4-7-21.2-9.7-32c-1.8-7.2-3.9-14.6-3.8-22
			c0.1-9.8,1.5-20.1,4.4-29.5c5.7-18.4,14-36.2,21.7-54c10.9-25.2,20.5-51.4,33.9-75c5.5-9.8,14.3-17.9,22.9-25.1
			c7.5-6.2,16.3-12.4,25.4-15.1c7.8-2.3,17.3-0.9,25.4,0.3c3.3,0.5,6.4,2.8,9.1,5c6.9,5.7,14.4,11.2,19.5,18.5
			c29.2,42.4,56.5,86.6,83.5,130.6C665,483.6,723.8,583,783.5,681.8c24.7,40.9,49.4,81.9,74.4,122.7c18.7,30.6,39.4,60.3,56.8,91.3
			c2.4,4.2,3.1,9.8,2.5,14.4c-0.7,5.4-1.8,12.8-6.3,15.7c-16.4,10.7-37.2,18.2-56.5,25.1c-8.8,3.1-18.3,4.9-27.6,5
			c-222.6,2.8-445.5,3.2-668.2,3.8l0,0c-128.2,0.3-256.3-0.6-384.5-0.9c-27.1-0.1-55.9,2.8-81.3-0.3c-3.8-0.5-5.3-6.6-6.3-10.4
			c-0.9-3.4-1-8,0.6-11c2.6-4.8,8.4-8.2,12.2-12.6c13.6-15.3,28-30.3,40.2-46.5c2.3-3.1,3.2-7.5,3.5-11.3c0.3-4.2-0.5-8.8-1.9-12.9
			c-9.6-27.2-21.8-53.7-31.1-81c-2.2-6.4-3.1-13.4-3.1-20.1c-0.1-10.5,1.6-21.2,2.8-31.7l1.7-14"/>
	</g>
</g>
</svg>
