<svg width="2800" height="1600" xmlns="http://www.w3.org/2000/svg">
 <metadata id="metadata3923">image/svg+xml</metadata>
 <g>
  <title>background</title>
  <rect fill="none" id="canvas_background" height="402" width="582" y="-1" x="-1"/>
 </g>
 <g>
  <title>Layer 1</title>
  <g id="svg_2">
   <g id="g3771">
    <path fill="none" stroke="#ffffff" stroke-width="20" stroke-miterlimit="4" d="m2506.807177,1008.056978l-29.8337,-376.3627c0,0 -20.9782,-238.1267 -34.4234,-385.54237c-3.0675,-33.63228 -66.86,-13.35165 -101.1385,-29.04615c-50.038,-22.91005 -56.4679,-87.44625 -90.0099,-90.00996c-33.542,-2.5637 -37.845,48.36491 -47.4708,93.42026c-10.4675,48.99514 -11.0653,100.35522 1.6883,134.12032c51.9876,137.6376 67.3056,233.5223 67.3056,233.5223c0,0 2.021,77.2698 -1.6525,115.3707c-3.6734,38.1009 -47.1188,43.5239 -63.406,49.1221c-16.2872,5.5983 -451.81326,-46.4485 -659.53756,-72.0923c-60.3853,-7.4547 -305.4063,-196.6703 -485.68239,-309.1387c-12.481,-7.7865 -48.0775,46.7904 -96.6666,100.9161c-19.8164,22.0744 -42.0595,51.3611 -60.779,82.9092c-18.7195,31.5481 -33.9154,65.3577 -46.1278,70.5144c-31.3748,13.248 -40.3435,-24.873 -93.4832,-93.1408c-22.5454,-28.9636 -83.4531,-84.7501 -126.8266,-107.4657c-19.38142,-10.1505 -78.1896,58.486 -78.1896,58.486c0,0 -204.85881,332.8994 -325.99038,507.124c-15.70501,22.5887 62.07749,82.3377 62.07749,82.3377c0,0 26.53502,24.8699 47.43987,34.2786c19.51531,8.7833 30.62137,13.83643 42.42099,11.89763c20.05674,-3.29553 -2.11061,94.5071 17.83574,137.2145c13.78857,29.5229 91.54234,83.0202 140.36289,137.1548c27.69827,25.45452 25.71488,74.14692 67.84849,79.32302c12.61481,1.4405 25.41251,-54.5032 41.66481,-130.81132c16.2524,-76.3081 40.8277,-169.7351 55.9023,-246.50703c11.2104,-57.0925 24.5871,-102.5823 57.5962,-176.7144c33.0091,-74.132 89.2416,-224.6731 106.4546,-231.6087c17.213,-6.9355 95.4654,76.753 176.8282,146.6395c81.3627,69.8866 72.6623,60.8744 93.5954,81.967c20.9331,21.0926 96.22719,44.5493 133.92479,45.8162c45.2613,1.521 52.8426,5.3678 52.2204,14.1772c-0.6222,8.8094 5.3815,25.5795 -3.0639,62.8657c-7.995,35.2972 22.3158,64.4987 28.7014,73.9927c6.3856,9.49393 48.668,15.34143 124.6089,22.09493c57.5021,5.1138 173.3928,19.3121 184.8082,17.5904c11.4153,-1.7216 20.2443,-36.79563 27.6789,-66.37263c7.5211,-29.9212 16.2744,-57.6371 26.8417,-66.7311c10.5672,-9.0941 37.3478,2.3294 107.2542,7.2272c76.5814,5.3655 103.2435,13.442 112.4989,16.0001c9.2553,2.558 -0.8867,36.6573 -0.3608,65.2489c0.526,28.59153 17.1535,41.34573 29.57,50.05273c12.4165,8.7069 68.22256,12.9035 168.56206,24.9736c56.1412,6.7534 128.1082,16.2275 181.5309,22.8019c54.52,6.7095 84.8151,8.9063 96.4131,3.778c11.598,-5.1283 27.8106,-25.3918 44.3209,-49.2657c14.7775,-21.3682 42.6144,-51.07173 48.0317,-70.06883c5.4173,-18.997 -1.3443,-82.0593 -1.3443,-82.0593z" id="path3005"/>
   </g>
   <path fill="none" stroke="#ffffff" stroke-width="10" stroke-miterlimit="4" id="path3852" d="m2289.978281,1203.209175c0,0 85.9371,-11.2848 102.2323,-14.6046c16.2952,-3.3198 80.2029,-94.8409 84.3822,-102.2324c4.1793,-7.3915 -18.0294,-262.8238 -27.6975,-394.1887c-9.7989,-133.1428 -26.5544,-384.1243 -30.721,-399.3289c-4.1666,-15.20448 -16.8154,-17.15049 -25.9638,-22.7183c-10.6675,-6.49237 -36.9095,-12.19751 -47.0592,-19.47283c-10.3758,-7.43733 -24.7386,-41.76109 -24.7386,-41.76109"/>
   <g id="g4094" transform="matrix(2.7258241,-0.22081221,0.22081221,2.7258241,2210.2713,-283.02374) ">
    <g id="g4078">
     <rect fill="#000000" fill-rule="nonzero" stroke="#ffffff" stroke-width="10" id="rect3974" y="452.320338" x="46.474341" height="7.883863" width="7.883863"/>
     <rect fill="#ffffff" fill-rule="nonzero" stroke="#ffffff" stroke-width="10" id="rect3974-6" y="452.320338" x="54.358207" height="7.883863" width="7.883863"/>
     <rect fill="#000000" fill-rule="nonzero" stroke="#ffffff" stroke-width="10" id="rect3974-9" y="452.320338" x="62.242072" height="7.883863" width="7.883863"/>
     <rect fill="#ffffff" fill-rule="nonzero" stroke="#ffffff" stroke-width="10" id="rect3974-0" y="452.320338" x="70.125937" height="7.883863" width="7.883863"/>
     <rect fill="#000000" fill-rule="nonzero" stroke="#ffffff" stroke-width="10" id="rect3974-2" y="452.320338" x="78.009806" height="7.883863" width="7.883863"/>
     <rect fill="#ffffff" fill-rule="nonzero" stroke="#ffffff" stroke-width="10" id="rect3974-8" y="452.320338" x="85.893666" height="7.883863" width="7.883863"/>
     <rect fill="#000000" fill-rule="nonzero" stroke="#ffffff" stroke-width="10" id="rect3974-3" transform="translate(-16.16889190673828,199.59744262695312) scale(-1) " y="-252.722896" x="-109.946428" height="7.883863" width="7.883863"/>
     <rect fill="#ffffff" fill-rule="nonzero" stroke="#ffffff" stroke-width="10" id="rect3974-6-1" transform="translate(-16.16889190673828,199.59744262695312) scale(-1) " y="-252.722896" x="-102.062558" height="7.883863" width="7.883863"/>
     <rect fill="#000000" fill-rule="nonzero" stroke="#ffffff" stroke-width="10" id="rect3974-9-3" transform="translate(-16.16889190673828,199.59744262695312) scale(-1) " y="-252.722896" x="-94.178698" height="7.883863" width="7.883863"/>
     <rect fill="#ffffff" fill-rule="nonzero" stroke="#ffffff" stroke-width="10" id="rect3974-0-7" transform="translate(-16.16889190673828,199.59744262695312) scale(-1) " y="-252.722896" x="-86.294829" height="7.883863" width="7.883863"/>
     <rect fill="#000000" fill-rule="nonzero" stroke="#ffffff" stroke-width="10" id="rect3974-2-6" transform="translate(-16.16889190673828,199.59744262695312) scale(-1) " y="-252.722896" x="-78.410964" height="7.883863" width="7.883863"/>
     <rect fill="#ffffff" fill-rule="nonzero" stroke="#ffffff" stroke-width="10" id="rect3974-8-7" transform="translate(-16.16889190673828,199.59744262695312) scale(-1) " y="-252.722896" x="-70.527099" height="7.883863" width="7.883863"/>
    </g>
    <rect fill="none" stroke="#ffffff" stroke-miterlimit="4" id="rect4092" y="444.936338" x="46.974433" height="14.768" width="46.303001"/>
   </g>
  </g>
 </g>
</svg>